<svg width="383" height="126" fill="none" xmlns="http://www.w3.org/2000/svg"><g opacity=".6"><g opacity=".42" filter="url(#filter0_f_26_1513)"><path d="M147.312 125.531l-3 6.434c-1.68 3.603-5.831 5.114-9.434 3.434l3-6.434c1.68-3.603 5.831-5.114 9.434-3.434z" fill="#fff"/></g><g opacity=".38" filter="url(#filter1_f_26_1513)"><path d="M98.943 91.633l-1.01 6.377c-.565 3.571-3.815 5.932-7.386 5.367L91.557 97c.565-3.57 3.815-5.932 7.386-5.367z" fill="#fff"/></g><g opacity=".48" filter="url(#filter2_f_26_1513)"><path d="M203.796 122.933l-5.948 5.356c-3.331 2.999-8.305 2.738-11.304-.593l5.948-5.355c3.331-2.999 8.305-2.738 11.304.592z" fill="#fff"/></g><g opacity=".36" filter="url(#filter3_f_26_1513)"><path d="M33.18 83.63l.212 6.044c.118 3.385-2.448 6.137-5.833 6.255l-.211-6.044c-.118-3.384 2.448-6.136 5.833-6.255z" fill="#fff"/></g><g opacity=".51" filter="url(#filter4_f_26_1513)"><path d="M228.451 69.107l-7.644 3.895c-4.28 2.18-9.357.531-11.538-3.75l7.644-3.894c4.28-2.18 9.357-.531 11.538 3.75z" fill="#fff"/></g><path opacity=".75" d="M379.042 79.364l-3.057-12.26c-1.712-6.867 2.337-13.607 9.204-15.319l3.057 12.261c1.711 6.866-2.338 13.606-9.204 15.318z" fill="#fff"/><g opacity=".38" filter="url(#filter5_f_26_1513)"><path d="M95.853 2.023L94.843 8.4c-.565 3.57-3.815 5.932-7.386 5.367l1.01-6.377c.565-3.571 3.815-5.932 7.386-5.367z" fill="#fff"/></g><g opacity=".37" filter="url(#filter6_f_26_1513)"><path d="M73.711 46.185l-.549 6.274c-.307 3.514-3.31 6.034-6.823 5.726l.549-6.275c.307-3.513 3.31-6.033 6.823-5.725z" fill="#fff"/></g><path opacity=".7" d="M343.883 5.512l-6.777-9.679c-3.795-5.42-2.519-12.66 2.901-16.455l6.777 9.678c3.795 5.42 2.519 12.66-2.901 16.456z" fill="#fff"/><g opacity=".61" filter="url(#filter7_f_26_1513)"><path d="M289.83 77.62l-9.888-2.466c-5.537-1.38-8.803-6.816-7.422-12.353l9.888 2.465c5.537 1.38 8.803 6.816 7.422 12.353z" fill="#fff"/></g><g opacity=".48" filter="url(#filter8_f_26_1513)"><path d="M206.371 18.388l-5.948 5.356c-3.331 2.999-8.305 2.738-11.304-.592l5.948-5.356c3.331-2.999 8.305-2.738 11.304.592z" fill="#fff"/></g><path opacity=".76" d="M382.926 33.982l-2.432-12.511c-1.361-7.006 3.073-13.581 10.08-14.943l2.432 12.511c1.361 7.006-3.073 13.581-10.08 14.943z" fill="#fff"/><path opacity=".69" d="M331.055 104.976l-7.46-8.89c-4.178-4.98-3.549-12.174 1.43-16.352l7.46 8.891c4.178 4.979 3.549 12.173-1.43 16.351z" stroke="#fff" stroke-width="1.352"/><g opacity=".44" filter="url(#filter9_f_26_1513)"><path d="M162.028-.006l-3.904 6.248c-2.186 3.5-6.653 4.53-10.152 2.344l3.904-6.248c2.186-3.499 6.653-4.53 10.152-2.344z" stroke="#fff" stroke-width=".858"/></g><g opacity=".36" filter="url(#filter10_f_26_1513)"><path d="M26.475 33.7l.21 6.02c.118 3.371-2.438 6.113-5.81 6.23l-.21-6.02c-.118-3.371 2.439-6.113 5.81-6.23z" stroke="#fff" stroke-width=".702"/></g><g opacity=".45" filter="url(#filter11_f_26_1513)"><path d="M172.241 72.005l-4.417 6.078c-2.473 3.404-7.091 4.136-10.495 1.663l4.417-6.08c2.473-3.403 7.091-4.135 10.495-1.661z" stroke="#fff" stroke-width=".875"/></g><path opacity=".75" d="M383.161 125.199l-3.056-12.26c-1.712-6.867 2.337-13.606 9.203-15.318l3.057 12.261c1.712 6.866-2.337 13.606-9.204 15.317z" stroke="#fff" stroke-width="1.472"/><path opacity=".68" d="M329.701 50.284l-8.191-7.909c-4.586-4.429-4.71-11.513-.281-16.1l8.191 7.91c4.586 4.43 4.71 11.513.281 16.1z" stroke="#fff" stroke-width="1.327"/><g opacity=".41" filter="url(#filter12_f_26_1513)"><path d="M130.09 44.242l-2.233 6.484c-1.25 3.632-5.086 5.502-8.717 4.252l2.233-6.484c1.25-3.632 5.086-5.502 8.717-4.252z" stroke="#fff" stroke-width=".799"/></g><g opacity=".56" filter="url(#filter13_f_26_1513)"><path d="M266.812 30.325l-9.43.825c-5.28.462-9.792-3.324-10.254-8.605l9.429-.825c5.281-.462 9.793 3.324 10.255 8.605z" stroke="#fff" stroke-width="1.103"/></g><g opacity=".36" filter="url(#filter14_f_26_1513)"><path d="M32.15-12.674l.212 6.044c.118 3.384-2.448 6.136-5.833 6.255l-.21-6.044c-.12-3.385 2.447-6.137 5.832-6.255z" stroke="#fff" stroke-width=".705"/></g><g opacity=".55" filter="url(#filter15_f_26_1513)"><path d="M258.159 114.695l-9.063 1.762c-5.076.987-9.839-2.226-10.825-7.302l9.063-1.761c5.076-.987 9.839 2.226 10.825 7.301z" stroke="#fff" stroke-width="1.076"/></g></g><defs><filter id="filter0_f_26_1513" x="132.672" y="122.641" width="16.845" height="15.649" filterUnits="userSpaceOnUse" color-interpolation-filters="sRGB"><feFlood flood-opacity="0" result="BackgroundImageFix"/><feBlend in="SourceGraphic" in2="BackgroundImageFix" result="shape"/><feGaussianBlur stdDeviation="1.103" result="effect1_foregroundBlur_26_1513"/></filter><filter id="filter1_f_26_1513" x="88.541" y="89.544" width="12.408" height="15.922" filterUnits="userSpaceOnUse" color-interpolation-filters="sRGB"><feFlood flood-opacity="0" result="BackgroundImageFix"/><feBlend in="SourceGraphic" in2="BackgroundImageFix" result="shape"/><feGaussianBlur stdDeviation="1.003" result="effect1_foregroundBlur_26_1513"/></filter><filter id="filter2_f_26_1513" x="185.301" y="119.009" width="19.738" height="12.611" filterUnits="userSpaceOnUse" color-interpolation-filters="sRGB"><feFlood flood-opacity="0" result="BackgroundImageFix"/><feBlend in="SourceGraphic" in2="BackgroundImageFix" result="shape"/><feGaussianBlur stdDeviation=".622" result="effect1_foregroundBlur_26_1513"/></filter><filter id="filter3_f_26_1513" x="25.465" y="81.751" width="9.809" height="16.057" filterUnits="userSpaceOnUse" color-interpolation-filters="sRGB"><feFlood flood-opacity="0" result="BackgroundImageFix"/><feBlend in="SourceGraphic" in2="BackgroundImageFix" result="shape"/><feGaussianBlur stdDeviation=".939" result="effect1_foregroundBlur_26_1513"/></filter><filter id="filter4_f_26_1513" x="207.937" y="63.065" width="21.846" height="12.231" filterUnits="userSpaceOnUse" color-interpolation-filters="sRGB"><feFlood flood-opacity="0" result="BackgroundImageFix"/><feBlend in="SourceGraphic" in2="BackgroundImageFix" result="shape"/><feGaussianBlur stdDeviation=".666" result="effect1_foregroundBlur_26_1513"/></filter><filter id="filter5_f_26_1513" x="85.451" y="-.066" width="12.408" height="15.922" filterUnits="userSpaceOnUse" color-interpolation-filters="sRGB"><feFlood flood-opacity="0" result="BackgroundImageFix"/><feBlend in="SourceGraphic" in2="BackgroundImageFix" result="shape"/><feGaussianBlur stdDeviation="1.003" result="effect1_foregroundBlur_26_1513"/></filter><filter id="filter6_f_26_1513" x="64.382" y="44.203" width="11.286" height="15.965" filterUnits="userSpaceOnUse" color-interpolation-filters="sRGB"><feFlood flood-opacity="0" result="BackgroundImageFix"/><feBlend in="SourceGraphic" in2="BackgroundImageFix" result="shape"/><feGaussianBlur stdDeviation=".978" result="effect1_foregroundBlur_26_1513"/></filter><filter id="filter7_f_26_1513" x="270.621" y="61.218" width="21.108" height="17.985" filterUnits="userSpaceOnUse" color-interpolation-filters="sRGB"><feFlood flood-opacity="0" result="BackgroundImageFix"/><feBlend in="SourceGraphic" in2="BackgroundImageFix" result="shape"/><feGaussianBlur stdDeviation=".792" result="effect1_foregroundBlur_26_1513"/></filter><filter id="filter8_f_26_1513" x="187.876" y="14.464" width="19.738" height="12.611" filterUnits="userSpaceOnUse" color-interpolation-filters="sRGB"><feFlood flood-opacity="0" result="BackgroundImageFix"/><feBlend in="SourceGraphic" in2="BackgroundImageFix" result="shape"/><feGaussianBlur stdDeviation=".622" result="effect1_foregroundBlur_26_1513"/></filter><filter id="filter9_f_26_1513" x="145.091" y="-3.87" width="19.817" height="16.319" filterUnits="userSpaceOnUse" color-interpolation-filters="sRGB"><feFlood flood-opacity="0" result="BackgroundImageFix"/><feBlend in="SourceGraphic" in2="BackgroundImageFix" result="shape"/><feGaussianBlur stdDeviation="1.144" result="effect1_foregroundBlur_26_1513"/></filter><filter id="filter10_f_26_1513" x="18.439" y="31.465" width="10.473" height="16.72" filterUnits="userSpaceOnUse" color-interpolation-filters="sRGB"><feFlood flood-opacity="0" result="BackgroundImageFix"/><feBlend in="SourceGraphic" in2="BackgroundImageFix" result="shape"/><feGaussianBlur stdDeviation=".936" result="effect1_foregroundBlur_26_1513"/></filter><filter id="filter11_f_26_1513" x="154.384" y="67.769" width="20.803" height="16.212" filterUnits="userSpaceOnUse" color-interpolation-filters="sRGB"><feFlood flood-opacity="0" result="BackgroundImageFix"/><feBlend in="SourceGraphic" in2="BackgroundImageFix" result="shape"/><feGaussianBlur stdDeviation="1.167" result="effect1_foregroundBlur_26_1513"/></filter><filter id="filter12_f_26_1513" x="116.502" y="41.325" width="16.226" height="16.571" filterUnits="userSpaceOnUse" color-interpolation-filters="sRGB"><feFlood flood-opacity="0" result="BackgroundImageFix"/><feBlend in="SourceGraphic" in2="BackgroundImageFix" result="shape"/><feGaussianBlur stdDeviation="1.065" result="effect1_foregroundBlur_26_1513"/></filter><filter id="filter13_f_26_1513" x="245.06" y="19.66" width="23.82" height="13.55" filterUnits="userSpaceOnUse" color-interpolation-filters="sRGB"><feFlood flood-opacity="0" result="BackgroundImageFix"/><feBlend in="SourceGraphic" in2="BackgroundImageFix" result="shape"/><feGaussianBlur stdDeviation=".735" result="effect1_foregroundBlur_26_1513"/></filter><filter id="filter14_f_26_1513" x="24.083" y="-14.917" width="10.514" height="16.785" filterUnits="userSpaceOnUse" color-interpolation-filters="sRGB"><feFlood flood-opacity="0" result="BackgroundImageFix"/><feBlend in="SourceGraphic" in2="BackgroundImageFix" result="shape"/><feGaussianBlur stdDeviation=".939" result="effect1_foregroundBlur_26_1513"/></filter><filter id="filter15_f_26_1513" x="236.206" y="105.243" width="24.019" height="13.364" filterUnits="userSpaceOnUse" color-interpolation-filters="sRGB"><feFlood flood-opacity="0" result="BackgroundImageFix"/><feBlend in="SourceGraphic" in2="BackgroundImageFix" result="shape"/><feGaussianBlur stdDeviation=".717" result="effect1_foregroundBlur_26_1513"/></filter></defs></svg>