<svg width="25" height="25" fill="none" xmlns="http://www.w3.org/2000/svg"><path d="M9.13 3.814c-.193.099-.141.014-1.744 2.681L6.05 8.727l-1.96.023-1.954.023-.183.193c-.286.304-.31.712-.06 1.003.173.206.346.281.67.281.154 0 .28.01.28.023 0 .118 1.468 8.949 1.505 9.07.268.826.98 1.538 1.791 1.791l.338.108h12.046l.338-.108c.81-.253 1.523-.965 1.79-1.79.038-.122 1.505-8.953 1.505-9.07 0-.015.136-.024.3-.024.502 0 .802-.277.802-.75 0-.295-.075-.445-.324-.628-.122-.094-.201-.099-2.057-.122l-1.927-.023-1.434-2.391c-1.28-2.128-1.458-2.4-1.622-2.494-.366-.21-.872-.084-1.055.267-.117.211-.112.563 0 .788.047.094.586 1.003 1.19 2.01l1.107 1.843H7.864L8.97 6.908a111.658 111.658 0 001.19-2.011c.113-.225.118-.577 0-.788-.173-.328-.67-.473-1.03-.295zm11.45 6.516c-.01.047-.328 1.96-.698 4.256-.375 2.297-.713 4.26-.755 4.369-.084.239-.356.525-.605.647-.182.093-.318.093-6.023.093s-5.84 0-6.023-.093c-.249-.122-.52-.408-.605-.647-.042-.108-.38-2.072-.755-4.37-.37-2.296-.689-4.208-.698-4.255-.019-.075.389-.08 8.081-.08 7.692 0 8.1.005 8.081.08z" fill="#fff"/><path d="M8.14 12.322a.658.658 0 00-.318.319l-.103.21.01 2.213c.013 2.161.013 2.213.112 2.344.173.234.38.342.665.342.314 0 .511-.108.656-.37l.108-.188-.014-2.25c-.014-2.184-.018-2.25-.112-2.381-.117-.164-.46-.342-.652-.342a.997.997 0 00-.351.103zm4.079-.052a.754.754 0 00-.225.15c-.249.23-.244.193-.244 2.597 0 2.152.005 2.245.094 2.396.14.224.351.337.656.337.305 0 .516-.113.656-.337.09-.15.094-.244.094-2.41v-2.255l-.103-.154a1.332 1.332 0 00-.235-.249c-.145-.107-.52-.15-.693-.075zm3.937.052c-.112.06-.248.168-.3.239-.094.131-.098.197-.112 2.381-.01 2.166-.01 2.25.08 2.428.257.502.974.52 1.335.038.099-.132.099-.183.113-2.349l.014-2.212-.113-.207c-.121-.234-.421-.421-.66-.421a.993.993 0 00-.357.103z" fill="#fff"/></svg>