<svg width="39" height="35" fill="none" xmlns="http://www.w3.org/2000/svg"><path d="M20.096 17.15l7.93-10.779c.524-.709 1.798-1.29 2.84-1.289H31A17.275 17.275 0 0019.173.406 17.274 17.274 0 007.334 5.054h.135c1.041.001 2.321.585 2.837 1.296l7.903 10.798c.262.351.606.53.943.531.345 0 .69-.178.944-.529z" fill="#D20000"/><path d="M19.131 34.96c9.564.012 17.332-7.711 17.343-17.26a17.306 17.306 0 00-.467-4.012l2.338-7.312h-.015l-.022.03-19.156 17.131L.001 6.33l19.146 21.331L38.27 6.46 20.08 31.19c-.263.35-.608.53-.945.529-.345 0-.689-.18-.943-.532L.001 6.33l2.313 7.295a17.45 17.45 0 00-.484 4.034c-.012 9.54 7.737 17.29 17.301 17.302z" fill="#D20000"/></svg>