<svg width="197" height="54" fill="none" xmlns="http://www.w3.org/2000/svg"><g clip-path="url(#clip0_27_3945)"><path d="M30.892 25.729L43.078 9.163c.806-1.09 2.764-1.983 4.364-1.98h.207A26.549 26.549 0 0029.472-.004a26.548 26.548 0 00-18.194 7.143h.208c1.6.002 3.567.9 4.36 1.991L27.99 25.726c.402.54.931.816 1.45.817.529 0 1.059-.275 1.45-.814z" fill="#D20000"/><path d="M29.408 53.1c14.698.018 26.637-11.851 26.654-26.526a26.59 26.59 0 00-.717-6.166L58.938 9.17h-.023l-.035.046-29.439 26.327L.008 9.1l29.425 32.782 29.39-32.585-27.958 38.007c-.403.539-.933.814-1.45.813-.53 0-1.06-.277-1.45-.817L.008 9.1l3.554 11.21a26.817 26.817 0 00-.744 6.2C2.801 41.173 14.71 53.083 29.408 53.1z" fill="#D20000"/><path d="M63.788 35.06V12.93h7.737c1.541 0 2.813.267 3.814.8 1.001.526 1.747 1.236 2.237 2.129.49.886.735 1.87.735 2.95 0 .95-.17 1.736-.508 2.355a3.95 3.95 0 01-1.319 1.47c-.54.36-1.127.626-1.76.8v.215c.676.043 1.357.281 2.041.713.685.433 1.257 1.052 1.718 1.859.461.807.692 1.794.692 2.96 0 1.11-.252 2.108-.757 2.994-.504.886-1.3 1.588-2.387 2.107-1.088.518-2.504.778-4.247.778h-7.996zm2.68-2.378h5.316c1.75 0 2.993-.338 3.728-1.015.742-.685 1.113-1.513 1.113-2.485 0-.75-.191-1.441-.573-2.075-.382-.641-.926-1.153-1.631-1.534-.706-.39-1.542-.584-2.507-.584h-5.446v7.693zm0-10.027h4.97c.807 0 1.535-.158 2.183-.475a3.816 3.816 0 001.556-1.34c.389-.576.583-1.253.583-2.031 0-.973-.338-1.798-1.015-2.475-.677-.684-1.75-1.026-3.22-1.026h-5.057v7.347zM83.232 35.06V18.463h2.55v7.218h1.686l5.964-7.218h3.285l-6.7 7.996 6.787 8.6h-3.285l-5.446-7.001h-2.29v7.002h-2.55zm17.985 6.223a5.59 5.59 0 01-1.156-.108c-.338-.064-.572-.13-.702-.194l.648-2.248c.62.159 1.167.216 1.643.173.475-.043.896-.255 1.264-.637.374-.375.717-.984 1.026-1.826l.476-1.297-6.138-16.683h2.767l4.581 13.225h.173l4.581-13.225h2.766l-7.045 19.017c-.317.857-.709 1.567-1.177 2.129a4.428 4.428 0 01-1.632 1.264c-.612.274-1.304.41-2.075.41zm21.443-5.878c-1.556 0-2.896-.367-4.019-1.102-1.124-.734-1.988-1.747-2.594-3.036-.605-1.29-.907-2.763-.907-4.42 0-1.685.31-3.173.929-4.462.627-1.297 1.498-2.309 2.615-3.036 1.124-.735 2.435-1.102 3.933-1.102 1.167 0 2.219.216 3.155.648a6.04 6.04 0 012.302 1.815c.598.778.969 1.686 1.113 2.723h-2.55c-.195-.756-.627-1.426-1.297-2.01-.663-.59-1.556-.886-2.68-.886-.994 0-1.865.26-2.615.778-.742.512-1.321 1.236-1.739 2.172-.411.93-.616 2.02-.616 3.274 0 1.282.202 2.399.605 3.35.411.95.987 1.689 1.729 2.215.749.526 1.628.789 2.636.789.663 0 1.264-.116 1.805-.346.54-.23.997-.562 1.372-.994.375-.432.641-.951.8-1.556h2.55a5.908 5.908 0 01-1.07 2.647c-.562.778-1.308 1.398-2.237 1.859-.922.453-1.995.68-3.22.68zm21.362-9.81v2.376h-9.163v-2.377h9.163zm-8.558-7.132V35.06h-2.55V18.463h2.55zm10.503 0V35.06h-2.55V18.463h2.55zm6.861 6.008h4.755c1.944 0 3.432.493 4.462 1.48 1.03.987 1.545 2.236 1.545 3.75 0 .993-.23 1.897-.691 2.711-.461.807-1.138 1.452-2.032 1.934-.893.476-1.988.714-3.284.714h-6.959V18.463h2.55v14.22h4.409c1.008 0 1.836-.267 2.485-.8.648-.533.972-1.217.972-2.053 0-.879-.324-1.596-.972-2.15-.649-.555-1.477-.832-2.485-.832h-4.755V24.47zm13.399 10.589V18.463h2.55V35.06h-2.55zm9.768-3.76l7.995-12.837h2.939V35.06h-2.55V22.223l-7.952 12.837h-2.982V18.463h2.55v12.836zm6.31-18.37h2.377c0 1.168-.404 2.122-1.21 2.864-.807.742-1.902 1.113-3.285 1.113-1.362 0-2.446-.371-3.252-1.113-.8-.742-1.2-1.696-1.2-2.863h2.377c0 .562.155 1.055.465 1.48.317.425.854.637 1.61.637.756 0 1.297-.212 1.621-.637a2.34 2.34 0 00.497-1.48z" fill="#000"/><path d="M63.788 35.06h-.874c0 .483.391.874.874.874v-.874zm0-22.13v-.874a.875.875 0 00-.874.875h.874zm11.551.8l-.411.772.004.003.407-.775zm2.237 2.129l-.767.42.001.003.766-.423zm.227 5.305l-.768-.42-.004.008.772.412zm-1.319 1.47l-.48-.731-.005.003.485.728zm-1.76.8l-.231-.845a.875.875 0 00-.645.844h.875zm0 .215h-.876c0 .462.359.844.82.873l.055-.873zm2.041.713l-.467.74.467-.74zm1.653 7.813l.76.432-.76-.432zm-2.387 2.107l-.377-.79.377.79zm-9.563-1.6h-.875c0 .484.392.875.875.875v-.875zm9.044-1.015l.593.643-.593-.643zm.54-4.56l-.751.448.002.003.75-.451zm-1.631-1.534l-.423.766.006.003.417-.77zm-7.953-.584v-.875a.875.875 0 00-.875.875h.875zm0-2.334h-.875c0 .483.392.875.875.875v-.875zm7.153-.475l-.38-.788-.004.002.384.786zm1.556-1.34l-.725-.49-.004.007.729.483zm-.432-4.506l-.622.616.003.003.619-.619zm-8.277-1.026v-.875a.875.875 0 00-.875.875h.875zM64.663 35.06V12.93h-1.75v22.13h1.75zm-.875-21.255h7.737v-1.75h-7.737v1.75zm7.737 0c1.447 0 2.565.252 3.403.697l.822-1.544c-1.165-.62-2.59-.902-4.225-.902v1.75zm3.407.7c.867.455 1.478 1.048 1.877 1.774l1.534-.84c-.582-1.061-1.461-1.887-2.597-2.483l-.814 1.549zm1.878 1.777c.413.748.626 1.584.626 2.527h1.75c0-1.219-.278-2.35-.845-3.374l-1.53.847zm.626 2.527c0 .853-.153 1.482-.401 1.936l1.535.839c.43-.785.615-1.727.615-2.775h-1.75zm-.405 1.942c-.267.5-.61.878-1.027 1.152l.961 1.461a4.824 4.824 0 001.609-1.787l-1.543-.826zM76 21.907a5.124 5.124 0 01-1.506.683l.46 1.688a6.872 6.872 0 002.017-.916L76 21.907zm-2.15 1.527v.216h1.749v-.216h-1.75zm.818 1.09c.506.032 1.047.21 1.631.58l.934-1.48c-.784-.495-1.604-.793-2.453-.847l-.112 1.746zm1.631.58c.547.344 1.025.85 1.426 1.552l1.519-.868c-.522-.913-1.188-1.645-2.01-2.164l-.935 1.48zm1.426 1.552c.368.645.576 1.473.576 2.527h1.75c0-1.281-.254-2.426-.807-3.395l-1.52.868zm.576 2.527c0 .97-.22 1.817-.642 2.56l1.52.865c.587-1.03.872-2.178.872-3.425H78.3zm-.642 2.56c-.4.704-1.047 1.294-2.004 1.75l.753 1.58c1.22-.582 2.164-1.397 2.772-2.465l-1.52-.865zm-2.004 1.75c-.93.443-2.203.693-3.87.693v1.75c1.82 0 3.377-.27 4.623-.864l-.753-1.579zm-3.87.693h-7.996v1.75h7.996v-1.75zm-5.316-.628h5.316v-1.75h-5.316v1.75zm5.316 0c1.82 0 3.34-.343 4.32-1.247l-1.185-1.287c-.489.451-1.453.785-3.135.785v1.75zm4.321-1.247c.914-.843 1.395-1.901 1.395-3.128h-1.75c0 .718-.261 1.316-.831 1.842l1.186 1.286zm1.395-3.128c0-.907-.234-1.754-.698-2.526l-1.5.902c.3.496.448 1.031.448 1.624h1.75zm-.696-2.523c-.469-.787-1.133-1.405-1.967-1.856l-.833 1.54c.578.312 1.002.716 1.297 1.212l1.503-.896zm-1.961-1.852c-.859-.474-1.845-.693-2.93-.693v1.75c.847 0 1.532.17 2.085.475l.845-1.532zm-2.93-.693h-5.445v1.75h5.446v-1.75zm-6.32.875v7.693h1.75V24.99h-1.75zm.875-1.459h4.97v-1.75h-4.97v1.75zm4.97 0c.924 0 1.786-.182 2.567-.564l-.768-1.572c-.515.252-1.11.387-1.799.387v1.749zm2.564-.563a4.69 4.69 0 001.904-1.644l-1.458-.966a2.94 2.94 0 01-1.208 1.035l.762 1.575zm1.9-1.638c.498-.737.733-1.59.733-2.52h-1.75c0 .625-.153 1.127-.433 1.542l1.45.978zm.733-2.52c0-1.2-.428-2.25-1.272-3.093l-1.237 1.237c.51.51.76 1.111.76 1.856h1.75zm-1.268-3.09c-.91-.92-2.26-1.286-3.842-1.286v1.75c1.357 0 2.154.318 2.598.767l1.244-1.231zm-3.842-1.286h-5.057v1.75h5.057v-1.75zm-5.932.875v7.347h1.75v-7.347h-1.75zm17.64 19.752h-.876c0 .483.392.874.875.874v-.874zm0-16.597v-.875a.875.875 0 00-.876.875h.875zm2.55 0h.874a.875.875 0 00-.875-.875v.875zm0 7.218h-.876c0 .483.392.874.875.874v-.874zm1.685 0v.874c.26 0 .508-.116.674-.317l-.674-.557zm5.964-7.218v-.875a.875.875 0 00-.674.318l.674.557zm3.285 0l.67.562a.875.875 0 00-.67-1.437v.875zm-6.7 7.996l-.67-.562A.875.875 0 0089.331 27l.687-.542zm6.787 8.6v.875a.875.875 0 00.686-1.416l-.686.542zm-3.285 0l-.69.538c.165.213.42.337.69.337v-.874zm-5.446-7.001l.69-.537a.875.875 0 00-.69-.338v.875zm-2.29 0v-.875a.875.875 0 00-.876.875h.875zm0 7.002v.874a.875.875 0 00.874-.874h-.875zm-1.676 0V18.463h-1.75V35.06h1.75zm-.875-15.722h2.55v-1.75h-2.55v1.75zm1.675-.875v7.218h1.75v-7.218h-1.75zm.875 8.092h1.686v-1.75h-1.686v1.75zm2.36-.317l5.965-7.218-1.35-1.114-5.964 7.217 1.35 1.115zm5.29-6.9h3.285v-1.75h-3.285v1.75zm2.614-1.437l-6.699 7.996 1.341 1.123 6.7-7.995-1.342-1.124zm-6.715 9.1l6.786 8.6 1.373-1.083-6.785-8.601L89.33 27zm7.472 7.184H93.52v1.75h3.284v-1.75zm-2.594.337l-5.446-7.001-1.38 1.074 5.445 7.002 1.381-1.075zm-6.136-7.339h-2.29v1.75h2.29v-1.75zm-3.166.875v7.002h1.75v-7.002h-1.75zm.875 6.127h-2.55v1.75h2.55v-1.75zm14.279 6.99l.182-.855-.017-.004-.165.86zm-.702-.194l-.84-.243a.875.875 0 00.449 1.025l.39-.782zm.648-2.248l.217-.847a.875.875 0 00-1.057.605l.84.242zm1.643.173l-.08-.871.08.871zm1.264-.637l-.619-.619-.012.012.631.607zm1.026-1.826l.821.301h.001l-.822-.301zm.476-1.297l.821.301a.88.88 0 000-.603l-.821.302zm-6.138-16.683v-.875a.875.875 0 00-.82 1.177l.82-.302zm2.767 0l.826-.287a.875.875 0 00-.826-.588v.875zm4.581 13.225l-.827.287a.875.875 0 00.827.588v-.875zm.173 0v.875a.874.874 0 00.826-.588l-.826-.287zm4.581-13.225v-.875a.874.874 0 00-.826.588l.826.287zm2.766 0l.821.304a.875.875 0 00-.821-1.179v.875zm-7.045 19.017l-.82-.304.82.304zm-1.177 2.129l-.672-.56-.004.004.676.556zm-1.632 1.264l-.354-.8-.003.001.357.799zm-2.075-.464c-.385 0-.708-.033-.974-.09l-.364 1.712c.411.087.859.127 1.338.127v-1.75zm-.991-.093a4.698 4.698 0 01-.36-.081c-.095-.026-.124-.04-.116-.037l-.782 1.565c.248.125.59.207.929.272l.329-1.719zm-.027.907l.649-2.247-1.681-.485-.649 2.247 1.681.485zm-.409-1.642c.686.175 1.337.251 1.939.196l-.159-1.742c-.348.032-.792-.007-1.346-.15l-.434 1.696zm1.939.196c.708-.064 1.319-.386 1.815-.902l-1.261-1.213c-.238.248-.47.351-.713.373l.159 1.742zm1.803-.89c.506-.506.902-1.252 1.229-2.143l-1.642-.603c-.292.795-.581 1.266-.824 1.51l1.237 1.236zm1.23-2.143l.475-1.297-1.643-.602-.475 1.297 1.643.602zm.475-1.9L99.1 18.162l-1.642.604 6.138 16.683 1.642-.604zm-6.959-15.506h2.767v-1.75h-2.767v1.75zm1.94-.589l4.581 13.226 1.654-.573-4.582-13.226-1.653.573zm5.408 13.814h.173v-1.75h-.173v1.75zm.999-.588l4.582-13.226-1.653-.572-4.582 13.225 1.653.573zm3.755-12.637h2.766v-1.75h-2.766v1.75zm1.946-1.179l-7.045 19.017 1.641.608 7.045-19.017-1.641-.608zm-7.045 19.017c-.291.787-.639 1.404-1.029 1.872l1.344 1.12c.545-.654.983-1.456 1.326-2.385l-1.641-.607zm-1.033 1.877a3.538 3.538 0 01-1.31 1.02l.708 1.6a5.286 5.286 0 001.953-1.509l-1.351-1.111zm-1.313 1.021c-.484.217-1.052.335-1.718.335v1.75c.876 0 1.692-.157 2.432-.488l-.714-1.597zm15.706-5.77l-.479.731.479-.732zm-2.572-11.919l-.788-.38v.001l.788.38zm2.615-3.036l.478.733.001-.001-.479-.732zm7.088-.454l.367-.794-.367.794zm2.302 1.815l.693-.533-.693.533zm1.113 2.723v.875a.873.873 0 00.866-.995l-.866.12zm-2.55 0l-.848.218c.1.387.448.657.848.657v-.875zm-1.297-2.01l-.582.654.007.006.575-.66zm-5.295-.108l.497.72h.001l-.498-.72zm-1.739 2.172l-.799-.356-.001.003.8.353zm-.011 6.624l-.805.341.002.006.803-.347zm1.729 2.215l-.506.714.003.002.503-.716zm4.441.443l-.344-.805.344.805zm1.372-.994l.661.573-.661-.573zm.8-1.556v-.875a.876.876 0 00-.847.653l.847.222zm2.55 0l.865.127a.875.875 0 00-.865-1.002v.875zm-1.07 2.647l-.708-.513h-.001l.709.513zm-2.237 1.859l.386.785.003-.002-.389-.783zm-3.22-.194c-1.413 0-2.581-.332-3.541-.96l-.957 1.464c1.288.842 2.8 1.245 4.498 1.245v-1.75zm-3.541-.96c-.979-.64-1.739-1.524-2.28-2.676l-1.583.744c.669 1.427 1.638 2.567 2.906 3.396l.957-1.464zm-2.28-2.676c-.542-1.155-.824-2.498-.824-4.047h-1.75c0 1.764.323 3.367.991 4.79l1.583-.743zm-.824-4.047c0-1.578.289-2.932.843-4.084l-1.577-.758c-.686 1.427-1.016 3.048-1.016 4.842h1.75zm.842-4.082c.563-1.165 1.332-2.05 2.305-2.684l-.956-1.466c-1.26.822-2.234 1.96-2.925 3.388l1.576.762zm2.306-2.685c.965-.631 2.105-.96 3.454-.96v-1.75c-1.648 0-3.13.407-4.412 1.246l.958 1.464zm3.454-.96c1.057 0 1.981.196 2.789.568l.733-1.588c-1.066-.492-2.245-.73-3.522-.73v1.75zm2.789.568a5.17 5.17 0 011.974 1.554l1.387-1.066a6.911 6.911 0 00-2.628-2.076l-.733 1.588zm1.974 1.554c.499.65.815 1.413.94 2.31l1.733-.24c-.163-1.177-.589-2.23-1.286-3.136l-1.387 1.066zm1.807 1.315h-2.55v1.75h2.55v-1.75zm-1.703.657c-.245-.95-.785-1.768-1.57-2.451l-1.149 1.32c.556.483.88 1.005 1.024 1.567l1.695-.436zm-1.562-2.445c-.862-.768-1.982-1.107-3.262-1.107v1.75c.968 0 1.635.25 2.098.663l1.164-1.306zm-3.262-1.107c-1.155 0-2.204.304-3.113.933l.996 1.439c.59-.409 1.284-.623 2.117-.623v-1.75zm-3.111.932c-.892.615-1.568 1.473-2.042 2.536l1.598.713c.361-.81.845-1.4 1.437-1.808l-.993-1.44zm-2.043 2.539c-.47 1.063-.691 2.28-.691 3.627h1.75c0-1.16.19-2.125.541-2.92l-1.6-.707zm-.691 3.627c0 1.372.216 2.61.675 3.692l1.61-.684c-.348-.82-.535-1.816-.535-3.008h-1.75zm.677 3.697c.465 1.077 1.136 1.95 2.026 2.582l1.012-1.428c-.594-.42-1.076-1.023-1.432-1.848l-1.606.694zm2.029 2.584c.912.64 1.97.947 3.139.947v-1.75c-.848 0-1.547-.217-2.134-.63l-1.005 1.433zm3.139.947c.766 0 1.486-.133 2.148-.415l-.687-1.61a3.678 3.678 0 01-1.461.276v1.75zm2.148-.415a4.598 4.598 0 001.69-1.226l-1.322-1.146a2.846 2.846 0 01-1.055.762l.687 1.61zm1.69-1.226a4.69 4.69 0 00.985-1.907l-1.693-.444a2.925 2.925 0 01-.614 1.205l1.322 1.146zm.139-1.254h2.55v-1.75h-2.55v1.75zm1.684-1.002a5.039 5.039 0 01-.912 2.26l1.416 1.028a6.776 6.776 0 001.227-3.034l-1.731-.254zm-.913 2.262c-.472.654-1.104 1.184-1.917 1.587l.778 1.567c1.046-.519 1.905-1.227 2.557-2.13l-1.418-1.024zm-1.914 1.586c-.781.384-1.718.59-2.834.59v1.75c1.333 0 2.543-.247 3.606-.77l-.772-1.57zm18.528-8.346h.875a.875.875 0 00-.875-.875v.875zm0 2.377v.875a.875.875 0 00.875-.875h-.875zm-9.163 0h-.875c0 .483.392.875.875.875v-.875zm0-2.377v-.875a.875.875 0 00-.875.875h.875zm.605-7.131h.875a.874.874 0 00-.875-.875v.875zm0 16.597v.874a.874.874 0 00.875-.874h-.875zm-2.55 0h-.874c0 .483.391.874.874.874v-.874zm0-16.597v-.875a.874.874 0 00-.874.875h.874zm13.053 0h.875a.875.875 0 00-.875-.875v.875zm0 16.597v.874a.875.875 0 00.875-.874h-.875zm-2.55 0h-.875c0 .483.392.874.875.874v-.874zm0-16.597v-.875a.875.875 0 00-.875.875h.875zm-.27 7.131v2.377h1.75v-2.377h-1.75zm.875 1.503h-9.163v1.75h9.163v-1.75zm-8.288.874v-2.377h-1.75v2.377h1.75zm-.875-1.502h9.163v-1.75h-9.163v1.75zm-.269-8.006V35.06h1.749V18.463h-1.749zm.874 15.722h-2.55v1.75h2.55v-1.75zm-1.675.875V18.463h-1.749V35.06h1.749zm-.875-15.722h2.55v-1.75h-2.55v1.75zm12.178-.875V35.06h1.75V18.463h-1.75zm.875 15.722h-2.55v1.75h2.55v-1.75zm-1.675.875V18.463h-1.75V35.06h1.75zm-.875-15.722h2.55v-1.75h-2.55v1.75zm9.411 5.133v-.875a.875.875 0 00-.875.875h.875zm9.217 1.48l.605-.632-.605.632zm.854 6.461l.759.434.002-.003-.761-.43zm-2.032 1.934l.411.773.005-.003-.416-.77zm-10.243.714h-.875c0 .483.392.874.875.874v-.874zm0-16.597v-.875a.875.875 0 00-.875.875h.875zm2.55 0h.875a.875.875 0 00-.875-.875v.875zm0 14.22h-.875c0 .483.392.874.875.874v-.875zm6.894-5.003l-.569.664.569-.664zm-7.24-.832h-.875c0 .483.392.874.875.874v-.874zm13.399 8.212h-.875c0 .483.392.874.875.874v-.874zm0-16.597v-.875a.875.875 0 00-.875.875h.875zm2.55 0h.874a.874.874 0 00-.874-.875v.875zm0 16.597v.874a.874.874 0 00.874-.874h-.874zm-15.949-9.715h4.755v-1.75h-4.755v1.75zm4.755 0c1.802 0 3.041.456 3.857 1.238l1.21-1.264c-1.244-1.192-2.98-1.723-5.067-1.723v1.75zm3.857 1.238c.846.81 1.275 1.827 1.275 3.117h1.75c0-1.735-.601-3.218-1.815-4.38l-1.21 1.262zm1.275 3.117c0 .853-.196 1.607-.578 2.281l1.523.862c.54-.953.805-2.007.805-3.143h-1.75zm-.576 2.278c-.372.652-.924 1.186-1.688 1.599l.832 1.54c1.023-.554 1.826-1.31 2.375-2.27l-1.519-.869zm-1.683 1.596c-.736.392-1.681.61-2.873.61v1.75c1.4 0 2.645-.256 3.695-.815l-.822-1.545zm-2.873.61h-6.959v1.75h6.959v-1.75zm-6.084.876V18.463h-1.75V35.06h1.75zm-.875-15.722h2.55v-1.75h-2.55v1.75zm1.675-.875v14.22h1.75v-14.22h-1.75zm.875 15.094h4.409v-1.75h-4.409v1.75zm4.409 0c1.168 0 2.206-.312 3.04-.998l-1.111-1.352c-.462.38-1.081.6-1.929.6v1.75zm3.04-.998c.85-.699 1.292-1.63 1.292-2.73h-1.75c0 .573-.206 1.01-.653 1.378l1.111 1.352zm1.292-2.73c0-1.125-.429-2.088-1.279-2.814l-1.137 1.33c.447.382.666.853.666 1.485h1.75zm-1.279-2.814c-.834-.714-1.876-1.042-3.053-1.042v1.75c.839 0 1.454.226 1.916.621l1.137-1.33zm-3.053-1.042h-4.755v1.75h4.755v-1.75zm-3.88.875V24.47h-1.75v2.377h1.75zm13.398 8.212V18.463h-1.749V35.06h1.749zm-.874-15.722h2.55v-1.75h-2.55v1.75zm1.675-.875V35.06h1.749V18.463h-1.749zm.875 15.722h-2.55v1.75h2.55v-1.75zm7.218-2.886h-.875a.875.875 0 001.617.463l-.742-.463zm7.995-12.836v-.875a.874.874 0 00-.742.412l.742.463zm2.939 0h.875a.875.875 0 00-.875-.875v.875zm0 16.597v.874a.875.875 0 00.875-.874h-.875zm-2.55 0h-.874c0 .483.391.874.874.874v-.874zm0-12.837h.875a.874.874 0 00-1.618-.46l.743.46zm-7.952 12.837v.874a.873.873 0 00.743-.414l-.743-.46zm-2.982 0h-.875c0 .483.391.874.875.874v-.874zm0-16.597v-.875a.874.874 0 00-.875.875h.875zm2.55 0h.874a.874.874 0 00-.874-.875v.875zm6.31-5.532v-.875a.875.875 0 00-.875.875h.875zm2.377 0h.875a.875.875 0 00-.875-.875v.875zm-1.21 2.863l-.592-.644.592.644zm-6.537 0l-.595.641.002.003.593-.644zm-1.2-2.863v-.875a.875.875 0 00-.875.875h.875zm2.377 0h.875a.875.875 0 00-.875-.875v.875zm.465 1.48l-.707.515.006.008.701-.523zm3.231 0l-.69-.538-.006.007.696.53zm-5.071 17.35l7.996-12.836-1.485-.925-7.996 12.837 1.485.925zm7.253-12.423h2.939v-1.75h-2.939v1.75zm2.065-.875V35.06h1.749V18.463h-1.749zm.874 15.722h-2.55v1.75h2.55v-1.75zm-1.675.875V22.223h-1.749V35.06h1.749zm-1.618-13.298L175.683 34.6l1.487.921 7.953-12.836-1.487-.922zm-7.209 12.423h-2.982v1.75h2.982v-1.75zm-2.108.875V18.463h-1.749V35.06h1.749zm-.874-15.722h2.55v-1.75h-2.55v1.75zm1.675-.875V31.3h1.749V18.463h-1.749zm7.185-4.658h2.377v-1.75h-2.377v1.75zm1.502-.874c0 .94-.313 1.654-.927 2.22l1.184 1.287c.999-.92 1.493-2.113 1.493-3.507h-1.75zm-.927 2.22c-.607.556-1.47.881-2.693.881v1.75c1.543 0 2.869-.418 3.877-1.344l-1.184-1.288zm-2.693.881c-1.198 0-2.052-.322-2.66-.882l-1.185 1.288c1.005.924 2.32 1.344 3.845 1.344v-1.75zm-2.657-.88c-.608-.563-.92-1.279-.92-2.221h-1.75c0 1.39.488 2.584 1.48 3.504l1.19-1.282zm-1.795-1.347h2.377v-1.75h-2.377v1.75zm1.503-.874c0 .733.206 1.41.632 1.995l1.414-1.03a1.574 1.574 0 01-.297-.965h-1.749zm.638 2.003c.544.73 1.403.99 2.311.99v-1.75c-.605 0-.819-.166-.909-.286l-1.402 1.046zm2.311.99c.909 0 1.765-.26 2.316-.983l-1.391-1.06c-.097.127-.322.293-.925.293v1.75zm2.311-.975c.456-.586.682-1.27.682-2.018h-1.75c0 .376-.106.678-.312.942l1.38 1.076z" fill="#000"/></g><defs><clipPath id="clip0_27_3945"><path fill="#fff" d="M0 0h196.9v53.1H0z"/></clipPath></defs></svg>