<svg width="12" height="19" fill="none" xmlns="http://www.w3.org/2000/svg"><path d="M10.932 11.623c.406-.405.464-.985.116-1.565-.29-.463-.811-.695-1.39-.58a1.959 1.959 0 00-.696.349c-1.797 1.217-4.231 1.159-6.028-.058l-.348-.174C1.95 9.305 1.311 9.42.963 10c-.405.58-.347 1.218.174 1.74.116.115.232.173.29.289l.058.058c.811.638 1.797 1.043 3.072 1.217l-.754.753-1.97 1.971c-.174.174-.406.464-.406.87 0 .521.29 1.043.811 1.274.174.116.348.116.522.116.29 0 .638-.116.87-.405l2.26-2.26.058-.059s.058 0 .058.058c.463.522.985.986 1.449 1.507l.695.696c.29.29.522.405.87.405.521.058 1.1-.29 1.333-.81a1.16 1.16 0 00-.29-1.392c-.58-.58-1.16-1.217-1.797-1.797l-.985-.985c.521-.058 1.101-.174 1.623-.406.869-.29 1.507-.695 2.028-1.217z" fill="#fff"/><path d="M5.948 10c2.492 0 4.52-1.97 4.52-4.462a4.559 4.559 0 00-1.333-3.246c-.869-.87-1.97-1.333-3.13-1.333-2.491 0-4.462 2.029-4.52 4.463 0 1.217.464 2.318 1.333 3.187C3.629 9.537 4.731 10 5.948 10zM4.673 4.205a1.798 1.798 0 011.275-.522c1.043 0 1.796.811 1.796 1.797 0 1.043-.81 1.796-1.796 1.796-1.043 0-1.797-.811-1.797-1.796 0-.464.174-.928.522-1.275z" fill="#fff"/><path d="M10.932 11.623c.406-.405.464-.985.116-1.565-.29-.463-.811-.695-1.39-.58a1.959 1.959 0 00-.696.349c-1.797 1.217-4.231 1.159-6.028-.058l-.348-.174C1.95 9.305 1.311 9.42.963 10c-.405.58-.347 1.218.174 1.74.116.115.232.173.29.289l.058.058c.811.638 1.797 1.043 3.072 1.217l-.754.753-1.97 1.971c-.174.174-.406.464-.406.87 0 .521.29 1.043.811 1.274.174.116.348.116.522.116.29 0 .638-.116.87-.405l2.26-2.26.058-.059s.058 0 .058.058c.463.522.985.986 1.449 1.507l.695.696c.29.29.522.405.87.405.521.058 1.1-.29 1.333-.81a1.16 1.16 0 00-.29-1.392c-.58-.58-1.16-1.217-1.797-1.797l-.985-.985c.521-.058 1.101-.174 1.623-.406.869-.29 1.507-.695 2.028-1.217z" fill="#fff"/></svg>